<svg width="68" height="68" viewBox="0 0 68 68" fill="none" xmlns="http://www.w3.org/2000/svg">
<path d="M49.5743 53.1713H62.1262M62.1262 53.1713L55.1529 46.198M62.1262 53.1713L55.1529 60.1445M34.2331 5.75293L27.2598 12.7262L34.2331 19.6995" stroke="#6E69D4" stroke-width="2.23145" stroke-linecap="round" stroke-linejoin="round"/>
<path d="M30.049 12.7266C35.5973 12.7266 40.9183 14.9306 44.8416 18.8538C48.7648 22.7771 50.9689 28.0981 50.9689 33.6464C50.9689 39.1947 48.7648 44.5157 44.8416 48.439C40.9183 52.3622 35.5973 54.5663 30.049 54.5663H6.33984" stroke="#6E69D4" stroke-width="2.23145" stroke-linecap="round" stroke-linejoin="round"/>
<path d="M19.6056 15.5156C16.4203 17.3507 13.7748 19.9928 11.9355 23.1757C10.0963 26.3587 9.12825 29.97 9.12891 33.6462C9.12891 38.3545 10.6853 42.7003 13.3129 46.1981" stroke="#6E69D4" stroke-width="2.23145" stroke-linecap="round" stroke-linejoin="round"/>
</svg>
