<svg width="68" height="68" viewBox="0 0 68 68" fill="none" xmlns="http://www.w3.org/2000/svg">
<path d="M41.3401 38.1989C40.2888 39.833 38.7334 41.0798 36.9096 41.7503C35.0859 42.4207 33.0933 42.4784 31.2339 41.9145C29.3744 41.3506 27.7495 40.1958 26.6054 38.6253C25.4614 37.0547 24.8605 35.154 24.8939 33.2112C24.9273 31.2684 25.5932 29.3895 26.7906 27.8592C27.988 26.3289 29.6517 25.2307 31.5294 24.7311C33.4071 24.2314 35.3966 24.3576 37.1962 25.0904C38.9957 25.8232 40.5074 27.1227 41.5019 28.792" stroke="#6E69D4" stroke-width="2.23145" stroke-linecap="round" stroke-linejoin="round"/>
<path d="M41.5021 28.7942L47.6944 25.09C45.8478 21.9899 43.0409 19.5762 39.6991 18.215C36.3573 16.8538 32.6628 16.6192 29.1756 17.5468C25.6885 18.4744 22.5988 20.5135 20.3749 23.3552C18.1511 26.1969 16.9143 29.6861 16.8521 33.294C16.7899 36.9019 17.9056 40.4317 20.0301 43.3484C22.1546 46.265 25.1722 48.4095 28.6253 49.4568C32.0784 50.5041 35.7787 50.397 39.1655 49.1519C42.5523 47.9067 45.4408 45.5913 47.3931 42.5567L41.3403 38.1998" stroke="#6E69D4" stroke-width="2.23145" stroke-linecap="round" stroke-linejoin="round"/>
<path d="M33.8257 5.05664L8.61035 18.7745V47.8057L33.8257 62.2376L59.0411 47.9075V18.5332L33.8257 5.05664Z" stroke="#6E69D4" stroke-width="2.23145" stroke-linecap="round" stroke-linejoin="round"/>
<path d="M48.6248 37.8174V29.4746M52.1812 37.8174V29.4746M47 31.7381H53.8059M47 35.5539H53.8059" stroke="#6E69D4" stroke-width="1.11573" stroke-linecap="round" stroke-linejoin="round"/>
</svg>
