<svg width="68" height="68" viewBox="0 0 68 68" fill="none" xmlns="http://www.w3.org/2000/svg">
<path d="M25.9062 23.7439H30.0902V36.2958H25.9062V23.7439ZM15.4463 27.9279H19.6302V36.2958H15.4463V27.9279ZM4.98633 15.376H9.1703V36.2958H4.98633V15.376Z" fill="#6E69D4"/>
<path d="M63.5619 60.5343L47.7632 44.7357C51.2155 40.6097 53.1055 35.4004 53.102 30.0206C53.102 17.3327 42.778 7.00879 30.0901 7.00879C25.0631 7.00879 20.2892 8.5987 16.2809 11.6112L18.7913 14.9583C22.0452 12.5027 26.0137 11.1801 30.0901 11.1928C40.4727 11.1928 48.918 19.6381 48.918 30.0206C48.918 40.4031 40.4727 48.8485 30.0901 48.8485C27.1652 48.86 24.2784 48.1845 21.6623 46.8764C19.0461 45.5683 16.7736 43.6642 15.0278 41.3173L11.6807 43.8319C13.8155 46.6988 16.5933 49.0248 19.7906 50.6227C22.988 52.2207 26.5157 53.0461 30.0901 53.0325C35.682 53.0325 40.8137 51.0242 44.8052 47.6937L60.6038 63.4924L63.5619 60.5343Z" fill="#6E69D4"/>
</svg>
