<svg width="68" height="63" viewBox="0 0 68 63" fill="none" xmlns="http://www.w3.org/2000/svg">
<path d="M26.3109 44.7841C17.6919 47.1829 31.5269 52.1479 42.4889 47.5734C41.4241 47.162 40.3974 46.658 39.4207 46.0672C35.6147 46.933 31.6836 47.1031 27.8171 46.5692C24.1631 46.1508 26.3109 44.7841 26.3109 44.7841ZM41.1779 40.098C36.2686 41.1641 31.2166 41.4092 26.2272 40.8233C22.5732 40.4327 24.972 38.6755 24.972 38.6755C15.4883 41.7995 30.2438 45.3698 43.4931 41.4648C42.6317 41.1818 41.8418 40.7155 41.1779 40.098ZM46.2545 12.958C46.2545 12.958 27.0919 17.7277 36.2408 28.2713C36.5978 28.6993 36.8638 29.1954 37.0225 29.7296C37.1813 30.2637 37.2295 30.8246 37.1643 31.378C37.099 31.9314 36.9216 32.4657 36.643 32.9483C36.3643 33.4308 35.9902 33.8515 35.5435 34.1847C35.5435 34.1847 42.4052 30.6423 39.2533 26.2072C36.1014 21.7722 34.0652 20.015 46.2545 12.958Z" fill="#6E69D4"/>
<path d="M50.7453 49.3303C50.7453 49.3303 52.3073 50.6134 48.988 51.6176C42.6563 53.5422 22.6848 54.1279 17.1341 51.6176C15.1258 50.7529 18.8634 49.5535 19.9234 49.3024C20.5514 49.1388 21.1992 49.0637 21.848 49.0793C19.6166 47.5173 7.48304 52.1475 15.6836 53.4864C38.1376 57.3078 56.5192 51.9244 50.7453 49.3303ZM43.0468 35.7185C43.867 35.1997 44.7248 34.7429 45.613 34.3517C45.613 34.3517 41.4011 35.1048 37.245 35.4674C32.7759 35.9003 28.2777 35.947 23.8005 35.6069C17.162 34.7422 27.343 32.2039 27.343 32.2039C24.279 32.1791 21.2547 32.8969 18.5287 34.2959C12.7827 37.1689 32.7263 38.4241 43.0468 35.7185ZM45.5851 42.5244C45.5238 42.6189 45.4485 42.7035 45.3619 42.7754C59.3085 39.0935 54.2319 29.8051 47.5376 32.1481C47.1675 32.2825 46.8466 32.5255 46.6171 32.8455C46.6171 32.8455 47.0076 32.706 47.8165 32.5108C51.2195 31.8134 55.9613 37.0573 45.5851 42.5244ZM33.6468 32.2039C31.5827 27.5458 24.5536 23.4455 33.6468 16.277C45.0551 7.32326 39.2254 1.52148 39.2254 1.52148C41.5685 10.7541 30.8575 13.5434 27.1198 19.2894C24.5257 23.2223 28.4308 27.4342 33.6468 32.2039Z" fill="#6E69D4"/>
<path d="M45.9474 55.4114C37.52 56.8519 28.9207 56.9836 20.4531 55.8019C20.4531 55.8019 21.7362 56.8618 28.3748 57.2802C38.4442 57.9218 53.897 56.9455 54.2875 52.1758C54.2875 52.1758 53.5623 53.9609 45.9474 55.4114Z" fill="#6E69D4"/>
</svg>
