<svg width="68" height="68" viewBox="0 0 68 68" fill="none" xmlns="http://www.w3.org/2000/svg">
<g clip-path="url(#clip0_2002_1551)">
<path d="M34.098 45.9195C51.4197 45.9195 65.4778 40.6895 65.4778 34.2044C65.4778 27.7192 51.4197 22.4893 34.098 22.4893C16.7764 22.4893 2.71826 27.7192 2.71826 34.2044C2.71826 40.6895 16.7764 45.9195 34.098 45.9195Z" stroke="#6E69D4" stroke-width="3.34718" stroke-linecap="round" stroke-linejoin="round"/>
<path d="M23.7215 40.0622C32.3824 54.7061 44.0556 63.9946 49.7877 60.7729C55.5197 57.5094 53.1349 43.0329 44.474 28.3471C35.8132 13.7032 24.1399 4.41482 18.4079 7.63648C12.6759 10.9 15.0607 25.3765 23.7215 40.0622Z" stroke="#6E69D4" stroke-width="3.34718" stroke-linecap="round" stroke-linejoin="round"/>
<path d="M23.7215 28.3471C15.0607 42.991 12.6759 57.5094 18.4079 60.7729C24.1399 63.9946 35.8132 54.7061 44.474 40.0622C53.1349 25.4183 55.5197 10.9 49.7877 7.63648C44.0556 4.41482 32.3824 13.7032 23.7215 28.3471Z" stroke="#6E69D4" stroke-width="3.34718" stroke-linecap="round" stroke-linejoin="round"/>
<path d="M36.1903 34.2053C36.1903 34.7601 35.9699 35.2922 35.5776 35.6845C35.1853 36.0768 34.6532 36.2973 34.0983 36.2973C33.5435 36.2973 33.0114 36.0768 32.6191 35.6845C32.2268 35.2922 32.0063 34.7601 32.0063 34.2053C32.0063 33.6504 32.2268 33.1183 32.6191 32.726C33.0114 32.3337 33.5435 32.1133 34.0983 32.1133C34.6532 32.1133 35.1853 32.3337 35.5776 32.726C35.9699 33.1183 36.1903 33.6504 36.1903 34.2053Z" stroke="#6E69D4" stroke-width="2.23145" stroke-linecap="round" stroke-linejoin="round"/>
</g>
<defs>
<clipPath id="clip0_2002_1551">
<rect width="66.9435" height="66.9435" fill="white" transform="translate(0.625488 0.732422)"/>
</clipPath>
</defs>
</svg>
