<svg width="1440" height="265" viewBox="0 0 1440 265" fill="none" xmlns="http://www.w3.org/2000/svg">
<path d="M6.27905 24.0463L1.08826 24.452C0.473999 24.5 0 25.0125 0 25.6286V263.82C0 264.472 0.52832 265 1.18018 265H1438.82C1439.47 265 1440 264.472 1440 263.82V25.1512C1440 24.5296 1439.52 24.0145 1438.9 23.9736L1306.61 15.2504C1306.24 15.2254 1305.87 15.2049 1305.49 15.1873C1294.56 14.6797 1123.44 6.77527 1014.07 3.9259C902.013 1.00665 712.803 0.0169067 709.577 0.000213623L709.526 -9.15527e-05C709.525 -9.15527e-05 709.525 0 709.474 0H490.814C403.953 0 335.93 2.94446 266.86 6.87039C197.854 10.7927 17.0743 23.0424 16.7446 23.0648C16.7345 23.0655 16.7391 23.0653 16.729 23.0662L6.27905 24.0463Z" fill="url(#paint0_linear_1138_2610)"/>
<defs>
<linearGradient id="paint0_linear_1138_2610" x1="2320.5" y1="132.635" x2="-1406.49" y2="2074.25" gradientUnits="userSpaceOnUse">
<stop stop-color="#6E69D4"/>
<stop offset="0.235647" stop-color="#010512"/>
<stop offset="1" stop-color="#6E69D4"/>
</linearGradient>
</defs>
</svg>
