<svg width="297" height="812" viewBox="0 0 297 812" fill="none" xmlns="http://www.w3.org/2000/svg">
<path d="M26.95 808.459L27.3448 811.001C27.4341 811.576 27.9292 812 28.511 812H295.82C296.472 812 297 811.472 297 810.82V1.18023C297 0.528408 296.472 0 295.82 0H27.9856C27.3931 0 26.8924 0.439343 26.8154 1.02686L17.1954 74.4251C17.0985 75.1649 17.0165 75.8959 16.9483 76.6389C15.9273 87.757 7.49786 180.348 4.39999 240.177C1.1994 301.99 0.0682678 405.435 0.00302124 411.611C0.000915527 411.812 0 411.977 0 412.178V535.235C0 584.215 3.29999 622.573 7.69998 661.52C12.0862 700.346 25.7639 801.919 25.8496 802.555C25.8522 802.575 25.8518 802.568 25.8555 802.587L26.95 808.459Z" fill="url(#paint0_linear_1127_2363)"/>
<defs>
<linearGradient id="paint0_linear_1127_2363" x1="91.1842" y1="-110.524" x2="1155.52" y2="3123.29" gradientUnits="userSpaceOnUse">
<stop/>
<stop offset="1" stop-color="#6E69D4"/>
</linearGradient>
</defs>
</svg>
