<svg width="146" height="24" viewBox="0 0 146 24" fill="none" xmlns="http://www.w3.org/2000/svg">
<path d="M7.8 2H16.2C19.4 2 22 4.6 22 7.8V16.2C22 17.7383 21.3889 19.2135 20.3012 20.3012C19.2135 21.3889 17.7383 22 16.2 22H7.8C4.6 22 2 19.4 2 16.2V7.8C2 6.26174 2.61107 4.78649 3.69878 3.69878C4.78649 2.61107 6.26174 2 7.8 2ZM7.6 4C6.64522 4 5.72955 4.37928 5.05442 5.05442C4.37928 5.72955 4 6.64522 4 7.6V16.4C4 18.39 5.61 20 7.6 20H16.4C17.3548 20 18.2705 19.6207 18.9456 18.9456C19.6207 18.2705 20 17.3548 20 16.4V7.6C20 5.61 18.39 4 16.4 4H7.6ZM17.25 5.5C17.5815 5.5 17.8995 5.6317 18.1339 5.86612C18.3683 6.10054 18.5 6.41848 18.5 6.75C18.5 7.08152 18.3683 7.39946 18.1339 7.63388C17.8995 7.8683 17.5815 8 17.25 8C16.9185 8 16.6005 7.8683 16.3661 7.63388C16.1317 7.39946 16 7.08152 16 6.75C16 6.41848 16.1317 6.10054 16.3661 5.86612C16.6005 5.6317 16.9185 5.5 17.25 5.5ZM12 7C13.3261 7 14.5979 7.52678 15.5355 8.46447C16.4732 9.40215 17 10.6739 17 12C17 13.3261 16.4732 14.5979 15.5355 15.5355C14.5979 16.4732 13.3261 17 12 17C10.6739 17 9.40215 16.4732 8.46447 15.5355C7.52678 14.5979 7 13.3261 7 12C7 10.6739 7.52678 9.40215 8.46447 8.46447C9.40215 7.52678 10.6739 7 12 7ZM12 9C11.2044 9 10.4413 9.31607 9.87868 9.87868C9.31607 10.4413 9 11.2044 9 12C9 12.7956 9.31607 13.5587 9.87868 14.1213C10.4413 14.6839 11.2044 15 12 15C12.7956 15 13.5587 14.6839 14.1213 14.1213C14.6839 13.5587 15 12.7956 15 12C15 11.2044 14.6839 10.4413 14.1213 9.87868C13.5587 9.31607 12.7956 9 12 9Z" fill="#DEDCDC"/>
<path d="M61 3C61.5304 3 62.0391 3.21071 62.4142 3.58579C62.7893 3.96086 63 4.46957 63 5V19C63 19.5304 62.7893 20.0391 62.4142 20.4142C62.0391 20.7893 61.5304 21 61 21H47C46.4696 21 45.9609 20.7893 45.5858 20.4142C45.2107 20.0391 45 19.5304 45 19V5C45 4.46957 45.2107 3.96086 45.5858 3.58579C45.9609 3.21071 46.4696 3 47 3H61ZM60.5 18.5V13.2C60.5 12.3354 60.1565 11.5062 59.5452 10.8948C58.9338 10.2835 58.1046 9.94 57.24 9.94C56.39 9.94 55.4 10.46 54.92 11.24V10.13H52.13V18.5H54.92V13.57C54.92 12.8 55.54 12.17 56.31 12.17C56.6813 12.17 57.0374 12.3175 57.2999 12.5801C57.5625 12.8426 57.71 13.1987 57.71 13.57V18.5H60.5ZM48.88 8.56C49.3256 8.56 49.7529 8.383 50.0679 8.06794C50.383 7.75288 50.56 7.32556 50.56 6.88C50.56 5.95 49.81 5.19 48.88 5.19C48.4318 5.19 48.0019 5.36805 47.685 5.68499C47.3681 6.00193 47.19 6.43178 47.19 6.88C47.19 7.81 47.95 8.56 48.88 8.56ZM50.27 18.5V10.13H47.5V18.5H50.27Z" fill="#DEDCDC"/>
<g clip-path="url(#clip0_1127_2366)">
<mask id="mask0_1127_2366" style="mask-type:luminance" maskUnits="userSpaceOnUse" x="84" y="2" width="20" height="20">
<path d="M84 2H104V22H84V2Z" fill="white"/>
</mask>
<g mask="url(#mask0_1127_2366)">
<path d="M99.75 2.93726H102.817L96.1171 10.6144L104 21.063H97.8286L92.9914 14.7273L87.4629 21.063H84.3929L91.5586 12.8487L84 2.93868H90.3286L94.6943 8.72868L99.75 2.93726ZM98.6714 19.223H100.371L89.4 4.68154H87.5771L98.6714 19.223Z" fill="#DEDCDC"/>
</g>
</g>
<path d="M144 12C144 6.48 139.52 2 134 2C128.48 2 124 6.48 124 12C124 16.84 127.44 20.87 132 21.8V15H130V12H132V9.5C132 7.57 133.57 6 135.5 6H138V9H136C135.45 9 135 9.45 135 10V12H138V15H135V21.95C140.05 21.45 144 17.19 144 12Z" fill="#DEDCDC"/>
<defs>
<clipPath id="clip0_1127_2366">
<rect width="20" height="20" fill="white" transform="translate(84 2)"/>
</clipPath>
</defs>
</svg>
