<svg xmlns="http://www.w3.org/2000/svg" width="30" height="31" viewBox="0 0 30 31" fill="none">
  <path d="M5 26.7046C4.3125 26.7046 3.72417 26.46 3.235 25.9708C2.74583 25.4817 2.50083 24.8929 2.5 24.2046V10.4546C2.5 9.76709 2.745 9.17876 3.235 8.68959C3.725 8.20042 4.31333 7.95542 5 7.95459H10V5.45459C10 4.76709 10.245 4.17876 10.735 3.68959C11.225 3.20042 11.8133 2.95542 12.5 2.95459H17.5C18.1875 2.95459 18.7763 3.19959 19.2663 3.68959C19.7563 4.17959 20.0008 4.76792 20 5.45459V7.95459H25C25.6875 7.95459 26.2763 8.19959 26.7663 8.68959C27.2563 9.17959 27.5008 9.76792 27.5 10.4546V15.7983C27.125 15.5275 26.7292 15.2933 26.3125 15.0958C25.8958 14.8983 25.4583 14.7263 25 14.5796V10.4546H5V24.2046H13.8438C13.9062 24.6421 14 25.0692 14.125 25.4858C14.25 25.9025 14.4062 26.3088 14.5938 26.7046H5ZM12.5 7.95459H17.5V5.45459H12.5V7.95459ZM22.5 29.2046C20.7708 29.2046 19.2971 28.595 18.0788 27.3758C16.8604 26.1567 16.2508 24.6829 16.25 22.9546C16.2492 21.2263 16.8588 19.7525 18.0788 18.5333C19.2987 17.3142 20.7725 16.7046 22.5 16.7046C24.2275 16.7046 25.7017 17.3142 26.9225 18.5333C28.1433 19.7525 28.7525 21.2263 28.75 22.9546C28.7475 24.6829 28.1379 26.1571 26.9213 27.3771C25.7046 28.5971 24.2308 29.2063 22.5 29.2046ZM23.125 22.7046V19.2046H21.875V23.2046L24.5625 25.8921L25.4375 25.0171L23.125 22.7046Z" fill="#6E69D4"/>
</svg>