<svg xmlns="http://www.w3.org/2000/svg" width="31" height="30" viewBox="0 0 31 30" fill="none">
  <path d="M15.8879 22.1377L22.1379 15.8877C22.2517 15.7689 22.3409 15.6287 22.4004 15.4752C22.5254 15.1709 22.5254 14.8296 22.4004 14.5252C22.3409 14.3718 22.2517 14.2316 22.1379 14.1127L15.8879 7.86273C15.7713 7.74618 15.633 7.65373 15.4807 7.59066C15.3284 7.52758 15.1652 7.49512 15.0004 7.49512C14.6675 7.49512 14.3483 7.62735 14.1129 7.86273C13.8775 8.09811 13.7453 8.41735 13.7453 8.75023C13.7453 9.08311 13.8775 9.40235 14.1129 9.63773L18.2379 13.7502H8.75037C8.41885 13.7502 8.10091 13.8819 7.86649 14.1163C7.63207 14.3508 7.50037 14.6687 7.50037 15.0002C7.50037 15.3318 7.63207 15.6497 7.86649 15.8841C8.10091 16.1185 8.41885 16.2502 8.75037 16.2502H18.2379L14.1129 20.3627C13.9957 20.4789 13.9027 20.6172 13.8393 20.7695C13.7758 20.9218 13.7431 21.0852 13.7431 21.2502C13.7431 21.4152 13.7758 21.5786 13.8393 21.731C13.9027 21.8833 13.9957 22.0215 14.1129 22.1377C14.2291 22.2549 14.3673 22.3479 14.5197 22.4113C14.672 22.4748 14.8354 22.5075 15.0004 22.5075C15.1654 22.5075 15.3288 22.4748 15.4811 22.4113C15.6334 22.3479 15.7717 22.2549 15.8879 22.1377Z" fill="#DEDCDC"/>
</svg>