<svg xmlns="http://www.w3.org/2000/svg" width="30" height="25" viewBox="0 0 30 25" fill="none">
  <g clip-path="url(#clip0_2034_1339)">
    <path d="M9.75008 16.9546C9.63804 16.9546 9.52601 16.971 9.41914 17.0057C8.81164 17.203 8.17273 17.3296 7.50008 17.3296C6.82742 17.3296 6.18851 17.203 5.58054 17.0057C5.47367 16.971 5.36211 16.9546 5.25008 16.9546C2.34101 16.9546 -0.015393 19.3208 7.57256e-05 22.2337C0.00663823 23.4646 1.01867 24.4546 2.25008 24.4546H12.7501C13.9815 24.4546 14.9935 23.4646 15.0001 22.2337C15.0155 19.3208 12.6591 16.9546 9.75008 16.9546ZM7.50008 15.4546C9.98539 15.4546 12.0001 13.4399 12.0001 10.9546C12.0001 8.46928 9.98539 6.45459 7.50008 6.45459C5.01476 6.45459 3.00008 8.46928 3.00008 10.9546C3.00008 13.4399 5.01476 15.4546 7.50008 15.4546ZM27.7501 0.45459H9.75008C8.50929 0.45459 7.50008 1.49756 7.50008 2.77912V4.95459C8.59789 4.95459 9.61414 5.2724 10.5001 5.78897V3.45459H27.0001V16.9546H24.0001V13.9546H18.0001V16.9546H14.4263C15.3216 17.7369 15.9788 18.7701 16.2868 19.9546H27.7501C28.9909 19.9546 30.0001 18.9116 30.0001 17.6301V2.77912C30.0001 1.49756 28.9909 0.45459 27.7501 0.45459Z" fill="#6E69D4"/>
  </g>
  <defs>
    <clipPath id="clip0_2034_1339">
      <rect width="30" height="24" fill="white" transform="translate(0 0.45459)"/>
    </clipPath>
  </defs>
</svg>